<?xml version="1.0" encoding="UTF-8"?>
<svg width="119px" height="23px" viewBox="0 0 119 23" version="1.1" xmlns="http://www.w3.org/2000/svg" xmlns:xlink="http://www.w3.org/1999/xlink">
    <!-- Generator: Sketch 49.3 (51167) - http://www.bohemiancoding.com/sketch -->
    <title>prominado</title>
    <desc>Created with Sketch.</desc>
    <defs></defs>
    <g id="Symbols" stroke="none" stroke-width="1" fill="none" fill-rule="evenodd">
        <g id="Подвал" transform="translate(-1151.000000, -377.000000)" fill-rule="nonzero">
            <g id="prominado">
                <g transform="translate(1151.000000, 377.000000)">
                    <g id="logo-prominado">
                        <path d="M31.019063,8.58572275 C30.1193663,8.58572275 29.384891,8.64079188 28.6688637,8.73230382 L28.6688637,13.8853167 C29.8621073,14.0869669 30.4867053,14.0689479 31.1846899,14.0689479 C32.6534378,14.0689479 33.6084787,12.913306 33.6084787,11.4284641 C33.6084787,9.79643377 32.8922487,8.58572275 31.019063,8.58572275 Z M31.4782368,15.8475593 C30.560092,15.8475593 29.843862,15.8475593 28.6688637,15.7009783 L28.6688637,20.6426228 L26.5572726,19.5141106 L26.5572726,7.22863313 C27.6404361,7.04520434 29.476523,6.80711134 31.3132181,6.80711134 C34.1039404,6.80711134 35.6282351,8.62277294 35.682971,11.373395 C35.682971,13.9956574 33.994063,15.8475593 31.4782368,15.8475593 Z" id="Fill-1" fill="#000000"></path>
                        <path d="M43.0443475,8.87949227 C41.9242879,8.87949227 40.8778177,8.91593507 39.8128995,9.00785193 L39.8128995,15.7560474 L37.7015111,15.7560474 L37.7015111,7.33877139 C39.207155,7.06383066 41.3919302,6.80711134 43.0443475,6.80711134 L43.0443475,8.87949227" id="Fill-2" fill="#000000"></path>
                        <path d="M51.3615758,11.3551736 C51.3615758,9.70431445 50.2784123,8.62277294 48.6624855,8.62277294 C47.0281107,8.62277294 45.9262964,9.70431445 45.9262964,11.3551736 C45.9262964,13.0418681 47.0281107,14.1608648 48.6624855,14.1608648 C50.2784123,14.1608648 51.3615758,13.0418681 51.3615758,11.3551736 Z M53.5098603,11.3551736 C53.5098603,14.1973076 51.5452453,16.0860573 48.6624855,16.0860573 C45.7608722,16.0860573 43.7962572,14.1973076 43.7962572,11.3551736 C43.7962572,8.56750135 45.7608722,6.69697308 48.6624855,6.69697308 C51.5452453,6.69697308 53.5098603,8.56750135 53.5098603,11.3551736 Z" id="Fill-3" fill="#000000"></path>
                        <path d="M69.7410954,10.1815128 L69.7410954,15.7560474 L67.6295043,15.7560474 L67.6295043,10.7864633 C67.6295043,9.41115232 66.9686184,8.73230382 65.6097479,8.73230382 C64.9117632,8.73230382 64.1955332,8.80559435 63.4975486,9.00785193 C63.5897888,9.33786179 63.6449302,9.72253586 63.6449302,10.162684 L63.6449302,15.7560474 L61.5146882,15.7560474 L61.5146882,10.7496156 C61.5146882,9.33786179 60.8538024,8.73230382 59.4949319,8.73230382 C58.8520886,8.73230382 58.2092453,8.76915155 57.5301141,8.86066348 L57.5301141,15.7560474 L55.4187257,15.7560474 L55.4187257,7.26548086 C56.0978569,7.10027347 58.2643867,6.80711134 59.9539029,6.80711134 C60.9271891,6.80711134 61.7537019,6.9719138 62.3776917,7.3752142 C63.2775911,7.04520434 64.8012777,6.80711134 66.0687189,6.80711134 C68.2723475,6.80711134 69.7410954,7.76029319 69.7410954,10.1815128" id="Fill-4" fill="#000000"></path>
                        <path d="M72.1628569,7.08205206 L74.2742453,7.08205206 L74.2742453,15.7560474 L72.1628569,15.7560474 L72.1628569,7.08205206 Z M71.7953152,4.22129175 C71.7953152,3.39586219 72.4199131,2.809133 73.2095298,2.809133 C73.9809012,2.809133 74.6229336,3.39586219 74.6229336,4.22129175 C74.6229336,5.00967113 73.9809012,5.59660278 73.2095298,5.59660278 C72.4199131,5.59660278 71.7953152,5.00967113 71.7953152,4.22129175 Z" id="Fill-5" fill="#000000"></path>
                        <path d="M85.4559881,10.1815128 L85.4559881,15.7560474 L83.3439915,15.7560474 L83.3439915,10.7864633 C83.3439915,9.53951198 82.5543748,8.73230382 81.3611312,8.73230382 C80.5897598,8.73230382 79.7821005,8.78737295 78.9373424,8.87949227 L78.9373424,15.7560474 L76.8257513,15.7560474 L76.8257513,7.22863313 C77.7621414,7.04520434 80.1307888,6.80711134 81.8201022,6.80711134 C84.0237308,6.80711134 85.4559881,8.12735323 85.4559881,10.1815128" id="Fill-6" fill="#000000"></path>
                        <path d="M89.3288603,11.4284641 C89.3288603,13.0969373 90.2652504,14.2523767 91.7526491,14.2523767 C92.5791618,14.2523767 93.3868211,13.9956574 94.2684753,13.3172138 L94.2684753,8.73230382 C93.552448,8.64079188 92.8179727,8.58572275 91.9180733,8.58572275 C90.0450903,8.58572275 89.3288603,9.79643377 89.3288603,11.4284641 Z M96.3800664,7.22863313 L96.3800664,15.7560474 L94.2684753,15.7560474 L94.2684753,15.0958252 C93.4419625,15.6827569 92.5609165,16.0309881 91.4591022,16.0309881 C88.943276,16.0309881 87.2537598,14.1790862 87.2537598,11.373395 C87.2726133,8.62277294 88.8333986,6.80711134 91.6058756,6.80711134 C93.4602078,6.80711134 94.5068807,6.9536924 96.3800664,7.22863313 Z" id="Fill-7" fill="#000000"></path>
                        <path d="M100.289835,11.3363448 C100.289835,13.0969373 101.134593,14.2523767 102.897293,14.2523767 C103.319368,14.2523767 104.035598,14.2153265 105.22945,14.0689479 L105.22945,8.82442314 C104.494569,8.65901329 103.631768,8.58572275 103.025821,8.58572275 C101.006065,8.58572275 100.289835,9.75938358 100.289835,11.3363448 Z M107.341041,15.6276877 C104.751625,15.975919 103.723198,15.975919 102.420077,15.975919 C99.9958825,15.975919 98.2329796,14.3074458 98.2329796,11.3363448 C98.2329796,8.62277294 99.7203782,6.80711134 102.75052,6.80711134 C103.521283,6.80711134 104.531465,6.89862327 105.22945,7.04520434 L105.22945,3.30009859 L107.341041,4.42861083 L107.341041,15.6276877 Z" id="Fill-8" fill="#000000"></path>
                        <path d="M116.832659,11.3551736 C116.832659,9.70431445 115.749698,8.62277294 114.133569,8.62277294 C112.499397,8.62277294 111.397583,9.70431445 111.397583,11.3551736 C111.397583,13.0418681 112.499397,14.1608648 114.133569,14.1608648 C115.749698,14.1608648 116.832659,13.0418681 116.832659,11.3551736 Z M118.981147,11.3551736 C118.981147,14.1973076 117.016329,16.0860573 114.133569,16.0860573 C111.232158,16.0860573 109.267341,14.1973076 109.267341,11.3551736 C109.267341,8.56750135 111.232158,6.69697308 114.133569,6.69697308 C117.016329,6.69697308 118.981147,8.56750135 118.981147,11.3551736 Z" id="Fill-9" fill="#000000"></path>
                        <g id="mark">
                            <polyline id="Fill-10" fill="#FA8305" points="4.92927598 15.8900759 2.81768484 17.1076706 2.81768484 19.542455 4.92927598 18.3250628 4.92927598 15.8900759"></polyline>
                            <polyline id="Fill-11" fill="#FFC005" points="8.45325724 13.858187 8.45325724 13.858187 6.34186882 15.0755792 6.34186882 17.5105661 8.45325724 16.2931739 8.45325724 22.7919386 10.5646457 21.5743439 10.5646457 12.6407948 8.45325724 13.858187"></polyline>
                            <polyline id="Fill-12" fill="#144FCB" points="17.6128109 6.94802352 19.7241993 5.73042886 19.7241993 3.29564447 17.6128109 4.51303667 17.6128109 6.94802352"></polyline>
                            <polyline id="Fill-13" fill="#2295F0" points="14.0888296 8.97991244 14.0888296 8.97991244 16.2002181 7.76252025 16.2002181 5.32753339 14.0888296 6.54492559 14.0888296 0.0461608882 11.9772385 1.26355309 11.9772385 10.1973046 14.0888296 8.97991244"></polyline>
                            <polyline id="Fill-14" fill="#52A121" points="11.9772385 19.1395595 11.9772385 21.5745464 14.0888296 22.7919386 14.0888296 20.3569517 11.9772385 19.1395595"></polyline>
                            <polyline id="Fill-15" fill="#8AC349" points="11.9772385 15.0755792 11.9772385 17.5105661 14.0888296 18.7279583 14.0888296 16.2931739 19.7241993 19.542455 19.7241993 17.1076706 11.9772385 12.6407948 11.9772385 15.0755792"></polyline>
                            <polyline id="Fill-16" fill="#4D1398" points="10.5646457 3.69853994 10.5646457 1.26355309 8.45325724 0.0461608882 8.45325724 2.48114774 10.5646457 3.69853994"></polyline>
                            <polyline id="Fill-17" fill="#8A4EB7" points="10.5646457 7.76231779 10.5646457 5.32753339 8.45325724 4.11014119 8.45325724 6.54492559 2.81768484 3.29544201 2.81768484 5.73042886 10.5646457 10.1973046 10.5646457 7.76231779"></polyline>
                            <polyline id="Fill-18" fill="#008FA0" points="18.3191073 14.6684321 20.4304957 15.8858243 22.5420869 14.6684321 20.4304957 13.4510399 18.3191073 14.6684321"></polyline>
                            <polyline id="Fill-19" fill="#00BBD4" points="14.7949233 12.6365432 14.7951261 12.6365432 16.9065145 13.8539354 19.0179029 12.6365432 16.9065145 11.4189485 22.5420869 8.16966738 20.4304957 6.95227518 14.7949233 10.2015563 12.6835349 11.4189485 14.7949233 12.6365432"></polyline>
                            <polyline id="Fill-21" fill="#C21624" points="4.22297956 8.16966738 2.11138842 6.95227518 0 8.16966738 2.11138842 9.38705958 4.22297956 8.16966738"></polyline>
                            <polyline id="Fill-22" fill="#F64237" points="7.74696082 10.2015563 7.74696082 10.2015563 5.6355724 8.9841641 3.52398126 10.2015563 5.63536968 11.4189485 0 14.6684321 2.11138842 15.8858243 9.85855196 11.4189485 7.74696082 10.2015563"></polyline>
                        </g>
                    </g>
                </g>
            </g>
        </g>
    </g>
</svg>