<svg xmlns="http://www.w3.org/2000/svg" xmlns:xlink="http://www.w3.org/1999/xlink" width="19.75" height="19.531" viewBox="0 0 19.75 19.531">
  <metadata><?xpacket begin="﻿" id="W5M0MpCehiHzreSzNTczkc9d"?>
<x:xmpmeta xmlns:x="adobe:ns:meta/" x:xmptk="Adobe XMP Core 5.6-c140 79.160451, 2017/05/06-01:08:21        ">
   <rdf:RDF xmlns:rdf="http://www.w3.org/1999/02/22-rdf-syntax-ns#">
      <rdf:Description rdf:about=""/>
   </rdf:RDF>
</x:xmpmeta>
                                                                                                    
                                                                                                    
                                                                                                    
                                                                                                    
                                                                                                    
                                                                                                    
                                                                                                    
                                                                                                    
                                                                                                    
                                                                                                    
                                                                                                    
                                                                                                    
                                                                                                    
                                                                                                    
                                                                                                    
                                                                                                    
                                                                                                    
                                                                                                    
                                                                                                    
                                                                                                    
                           
<?xpacket end="w"?></metadata>
<defs>
    <style>
      .cls-1 {
        fill: #fff;
        fill-rule: evenodd;
        filter: url(#filter);
      }
    </style>
    <filter id="filter" x="1652.16" y="557" width="19.75" height="19.531" filterUnits="userSpaceOnUse">
      <feFlood result="flood" flood-color="#516aff"/>
      <feComposite result="composite" operator="in" in2="SourceGraphic"/>
      <feBlend result="blend" in2="SourceGraphic"/>
    </filter>
  </defs>
  <path id="Twitter_Logo_In_Circular_Black_Button._Attribute_as_Linh_Pham_from_Flaticon.com" data-name="Twitter Logo In Circular Black Button. Attribute as Linh Pham from Flaticon.com" class="cls-1" d="M1671.92,566.758a9.881,9.881,0,1,0-9.88,9.759A9.825,9.825,0,0,0,1671.92,566.758Zm-15.2,3.468a4.2,4.2,0,0,0,.52.033,4.257,4.257,0,0,0,2.71-.975,2.212,2.212,0,0,1-2.04-1.605,2.11,2.11,0,0,0,.41.044,2.168,2.168,0,0,0,.58-0.077,2.3,2.3,0,0,1-1.76-2.27v-0.028a2.144,2.144,0,0,0,.99.3,2.375,2.375,0,0,1-.97-1.926,2.342,2.342,0,0,1,.3-1.153,6.174,6.174,0,0,0,4.5,2.456,2.252,2.252,0,0,1-.06-0.522,2.155,2.155,0,0,1,3.78-1.5,4.164,4.164,0,0,0,1.38-.528,2.21,2.21,0,0,1-.96,1.239,4.188,4.188,0,0,0,1.26-.339,4.715,4.715,0,0,1-1.09,1.157v0.293a6.289,6.289,0,0,1-6.21,6.443A5.9,5.9,0,0,1,1656.72,570.226Z" transform="translate(-1652.16 -557)"/>
</svg>
